<svg width="262" height="58" viewBox="0 0 262 58" fill="none" xmlns="http://www.w3.org/2000/svg">
<path d="M142.378 43.7253C140.686 42.9337 139.349 41.8525 138.36 40.4936C137.372 39.1347 136.834 37.6282 136.737 35.9739H143.361C143.487 37.0137 143.978 37.8704 144.841 38.5498C145.704 39.2293 146.773 39.5719 148.059 39.5719C149.31 39.5719 150.293 39.312 150.996 38.7921C151.699 38.2721 152.054 37.6104 152.054 36.801C152.054 35.9266 151.625 35.2708 150.762 34.8336C149.899 34.3964 148.527 33.9179 146.647 33.3979C144.704 32.9135 143.115 32.4113 141.875 31.8914C140.635 31.3715 139.572 30.5798 138.68 29.5104C137.789 28.441 137.343 26.9995 137.343 25.1857C137.343 23.6968 137.76 22.338 138.589 21.1032C139.418 19.8743 140.612 18.8994 142.161 18.1905C143.71 17.4756 145.539 17.1211 147.636 17.1211C150.739 17.1211 153.214 17.9246 155.06 19.5257C156.906 21.1268 157.929 23.2892 158.112 26.0128H151.814C151.722 24.9434 151.288 24.0927 150.522 23.4605C149.756 22.8283 148.728 22.5152 147.442 22.5152C146.253 22.5152 145.333 22.7397 144.693 23.1946C144.053 23.6496 143.727 24.2817 143.727 25.0911C143.727 26.001 144.167 26.6863 145.041 27.159C145.916 27.6316 147.282 28.1043 149.133 28.5946C151.014 29.0791 152.562 29.5813 153.785 30.1012C155.008 30.6211 156.066 31.4187 156.957 32.5058C157.849 33.5929 158.312 35.0227 158.346 36.8069C158.346 38.3608 157.929 39.7551 157.1 40.984C156.271 42.2129 155.083 43.1759 153.528 43.873C151.979 44.5702 150.168 44.9188 148.099 44.9188C145.984 44.9129 144.07 44.517 142.378 43.7253Z" fill="black"/>
<path d="M171.422 23.1479V36.1694C171.422 37.0793 171.634 37.7351 172.057 38.1368C172.48 38.5445 173.194 38.7454 174.194 38.7454H177.252V44.4762H173.114C167.57 44.4762 164.793 41.6876 164.793 36.1221V23.1479H161.072V17.5588H164.793V10.9004H171.422V17.5588H177.252V23.1479H171.422Z" fill="black"/>
<path d="M206.015 33.0612H186.978C187.132 35.005 187.795 36.5293 188.95 37.6282C190.11 38.733 191.533 39.2824 193.224 39.2824C195.671 39.2824 197.408 38.2013 198.442 36.0271H205.54C204.786 38.6207 203.346 40.7477 201.214 42.4137C199.082 44.0798 196.465 44.9188 193.367 44.9188C190.858 44.9188 188.612 44.3457 186.624 43.1936C184.635 42.0415 183.08 40.4168 181.972 38.3076C180.857 36.2043 180.303 33.7702 180.303 31.017C180.303 28.2283 180.851 25.7883 181.949 23.6791C183.046 21.5758 184.583 19.957 186.555 18.8226C188.527 17.6883 190.801 17.1211 193.367 17.1211C195.842 17.1211 198.059 17.6705 200.02 18.7754C201.98 19.8802 203.5 21.4399 204.58 23.4664C205.66 25.4929 206.203 27.8148 206.203 30.438C206.203 31.4069 206.141 32.2813 206.015 33.0612ZM199.385 28.4942C199.351 26.7454 198.745 25.3452 197.551 24.2935C196.362 23.2419 194.905 22.7161 193.179 22.7161C191.55 22.7161 190.178 23.2242 189.064 24.2463C187.95 25.2684 187.269 26.6863 187.018 28.5001H199.385V28.4942Z" fill="black"/>
<path d="M217.577 8.52539H210.999V44.4822H217.577V8.52539Z" fill="black"/>
<path d="M229.099 8.52539H222.521V44.4822H229.099V8.52539Z" fill="black"/>
<path d="M88.4331 23.5137C92.4393 23.5137 95.6912 26.8813 95.6912 31.017C95.6912 35.1586 92.4336 38.5203 88.4331 38.5203C84.4268 38.5203 81.1749 35.1527 81.1749 31.017C81.1692 26.8813 84.4268 23.5137 88.4331 23.5137ZM88.4331 17.1211C81.0092 17.1211 74.9912 23.3423 74.9912 31.017C74.9912 38.6916 81.0092 44.9129 88.4331 44.9129C95.8569 44.9129 101.875 38.6916 101.875 31.017C101.875 23.3423 95.8569 17.1211 88.4331 17.1211Z" fill="black"/>
<path d="M131.782 23.6555C130.73 21.564 129.307 19.957 127.507 18.8226C125.707 17.6883 123.689 17.1211 121.466 17.1211C119.557 17.1211 117.854 17.5347 116.368 18.3618C114.883 19.1889 113.711 20.217 112.865 21.4458V17.5583H106.287V55.6479L112.865 53.8164V40.6354C113.774 41.8643 114.957 42.8864 116.414 43.6958C117.872 44.5052 119.557 44.9129 121.466 44.9129C123.689 44.9129 125.701 44.328 127.507 43.1641C129.307 42.0002 130.736 40.3518 131.782 38.2308C132.834 36.1098 133.359 33.6697 133.359 30.9165C133.354 28.1693 132.828 25.7469 131.782 23.6555ZM125.673 35.194C125.033 36.3934 124.187 37.315 123.135 37.9649C122.084 38.6148 120.952 38.9339 119.729 38.9339C118.54 38.9339 117.42 38.6207 116.368 37.9886C115.317 37.3564 114.471 36.4406 113.831 35.2413C113.191 34.0419 112.865 32.6358 112.865 31.017C112.865 29.3982 113.185 27.9861 113.831 26.7927C114.471 25.5933 115.317 24.6776 116.368 24.0454C117.42 23.4132 118.54 23.1001 119.729 23.1001C120.952 23.1001 122.084 23.4073 123.135 24.0218C124.187 24.6362 125.033 25.5342 125.673 26.7159C126.313 27.8975 126.638 29.2977 126.638 30.9165C126.633 32.5708 126.313 34.0006 125.673 35.194Z" fill="black"/>
<path d="M254.536 40.5409V44.9129L261.16 43.0636V17.5583H254.536V21.3986C253.656 20.1697 252.49 19.1476 251.033 18.3382C249.576 17.5288 247.878 17.1211 245.935 17.1211C243.712 17.1211 241.695 17.6883 239.894 18.8226C238.094 19.957 236.665 21.5758 235.619 23.6791C234.568 25.7824 234.048 28.1988 234.048 30.9166C234.048 33.6697 234.574 36.1098 235.619 38.2308C236.671 40.3518 238.094 41.9943 239.894 43.1641C241.695 44.328 243.695 44.9129 245.884 44.9129C247.827 44.9129 249.541 44.4993 251.033 43.6722C252.525 42.8509 253.691 41.8052 254.536 40.5409ZM244.266 37.9649C243.215 37.315 242.369 36.3875 241.729 35.1704C241.089 33.9533 240.769 32.5413 240.769 30.9166C240.769 29.2918 241.089 27.8975 241.729 26.7159C242.369 25.5342 243.209 24.6362 244.244 24.0218C245.278 23.4073 246.404 23.1001 247.627 23.1001C248.85 23.1001 249.993 23.4132 251.056 24.0454C252.119 24.6776 252.965 25.5815 253.593 26.769C254.222 27.9507 254.531 29.3686 254.531 31.017C254.531 32.6713 254.216 34.0892 253.593 35.2708C252.965 36.4525 252.119 37.3623 251.056 37.9945C249.993 38.6266 248.85 38.9398 247.627 38.9398C246.438 38.9398 245.318 38.6148 244.266 37.9649Z" fill="black"/>
<path d="M57.0006 21.7714C55.9376 22.4745 55.3661 23.7329 55.4747 25.0327C56.6863 39.0054 41.4956 48.3048 30.2255 40.5002C29.0653 39.7026 27.5623 39.6612 26.3278 40.3347C23.9446 41.6286 21.7786 42.7689 19.8412 43.7555C38.7181 65.6746 72.517 45.2798 63.35 17.5176C61.1726 18.9946 59.058 20.4126 57.0006 21.7714ZM52.0799 16.1292C48.588 18.5456 43.5816 21.736 37.9408 25.1036C32.7001 28.229 27.8595 30.929 24.1732 32.8314C17.458 14.6226 40.1697 1.04575 52.0799 16.1292ZM14.5319 33.4222C15.1034 35.7205 14.4348 38.1192 12.7545 39.7321C-18.1983 61.1726 13.4918 45.7938 41.0156 29.517C62.7785 16.5486 79.5065 4.39564 78.8207 3.16675C78.4149 2.44005 72.677 4.80331 63.9958 9.22258C61.6812 10.2033 59.2237 9.65978 57.4578 7.86371H57.4521C52.1199 2.38689 45.7705 1.77323e-06 39.5753 1.77323e-06C24.1847 -0.00590634 9.78271 14.7526 14.5319 33.4222Z" fill="url(#paint0_linear_729_6826)"/>
<path d="M123.004 50.1484L122.307 54.2546C122.215 54.7627 121.998 55.1644 121.644 55.4598C121.29 55.7552 120.878 55.9029 120.392 55.9029C119.969 55.9029 119.638 55.7907 119.392 55.5603C119.146 55.3358 119.026 55.0226 119.026 54.6209C119.026 54.4909 119.038 54.3668 119.061 54.2546H119.969C119.958 54.3019 119.952 54.3727 119.952 54.4673C119.952 54.6504 119.998 54.7981 120.101 54.9104C120.198 55.0167 120.347 55.0758 120.541 55.0758C120.775 55.0758 120.964 54.999 121.107 54.8513C121.25 54.7036 121.347 54.5027 121.398 54.2546L122.095 50.1484H123.004Z" fill="black"/>
<path d="M128.217 51.3242L127.445 55.838H126.542L126.628 55.3063C126.451 55.4895 126.245 55.6372 125.999 55.7435C125.753 55.8498 125.502 55.903 125.239 55.903C124.782 55.903 124.41 55.773 124.136 55.519C123.862 55.2649 123.725 54.8986 123.725 54.4319C123.725 54.3078 123.736 54.1542 123.765 53.9829L124.216 51.3242H125.113L124.685 53.8411C124.662 53.9947 124.65 54.101 124.65 54.166C124.65 54.4673 124.73 54.6978 124.89 54.8573C125.05 55.0168 125.273 55.0936 125.559 55.0936C125.891 55.0936 126.176 54.9932 126.405 54.7864C126.639 54.5796 126.794 54.2842 126.862 53.9002L127.297 51.3242H128.217Z" fill="black"/>
<path d="M129.422 55.7539C129.176 55.6476 128.976 55.4999 128.833 55.3049C128.691 55.11 128.616 54.8854 128.616 54.6373C128.616 54.596 128.622 54.531 128.633 54.4601H129.513C129.491 54.6668 129.553 54.8382 129.696 54.9741C129.839 55.11 130.039 55.1808 130.296 55.1808C130.548 55.1808 130.759 55.1336 130.925 55.0391C131.091 54.9445 131.171 54.8086 131.171 54.6314C131.171 54.4778 131.102 54.3537 130.971 54.2651C130.834 54.1706 130.622 54.0701 130.325 53.952C130.045 53.8397 129.816 53.7275 129.645 53.6329C129.468 53.5325 129.319 53.3966 129.193 53.2253C129.068 53.0539 129.005 52.8412 129.005 52.5813C129.005 52.3213 129.079 52.0909 129.222 51.89C129.365 51.6892 129.571 51.5355 129.834 51.4233C130.096 51.311 130.394 51.252 130.731 51.252C131.039 51.252 131.308 51.3051 131.554 51.4115C131.794 51.5178 131.982 51.6714 132.12 51.8605C132.257 52.0555 132.32 52.28 132.32 52.5281C132.32 52.6049 132.32 52.664 132.314 52.6994H131.457C131.479 52.4868 131.417 52.3154 131.279 52.1854C131.137 52.0555 130.942 51.9905 130.679 51.9905C130.451 51.9905 130.268 52.0377 130.131 52.1382C129.988 52.2386 129.919 52.3686 129.919 52.5399C129.919 52.7113 129.988 52.8471 130.131 52.9476C130.274 53.048 130.491 53.1603 130.788 53.2784C131.057 53.3907 131.279 53.4911 131.445 53.5916C131.617 53.692 131.759 53.822 131.88 53.9874C132 54.1528 132.062 54.3537 132.062 54.6019C132.062 54.8677 131.982 55.1041 131.828 55.3049C131.674 55.5058 131.457 55.6594 131.182 55.7658C130.908 55.8721 130.594 55.9253 130.245 55.9253C129.948 55.9135 129.674 55.8603 129.422 55.7539Z" fill="black"/>
<path d="M134.143 54.585C134.131 54.6618 134.126 54.7091 134.126 54.7327C134.126 54.845 134.16 54.9277 134.228 54.9808C134.297 55.034 134.411 55.0576 134.571 55.0576H135.126L134.989 55.8375H134.274C133.926 55.8375 133.657 55.7666 133.474 55.6189C133.291 55.4712 133.194 55.2408 133.194 54.9277C133.194 54.8095 133.205 54.6913 133.228 54.585L133.657 52.0859H133.143L133.268 51.3237H133.794L133.983 50.2012H134.897L134.709 51.3237H135.76L135.634 52.0859H134.571L134.143 54.585Z" fill="black"/>
<path d="M140.481 51.4647C140.767 51.3229 141.081 51.252 141.413 51.252C141.744 51.252 142.041 51.3229 142.299 51.4765C142.556 51.6301 142.756 51.8369 142.899 52.1086C143.042 52.3804 143.116 52.6994 143.116 53.0657C143.116 53.2253 143.099 53.3907 143.07 53.5679C142.99 54.0229 142.83 54.4305 142.59 54.785C142.35 55.1395 142.059 55.4231 141.71 55.624C141.361 55.8248 141.001 55.9253 140.618 55.9253C140.287 55.9253 140.001 55.8544 139.767 55.7185C139.532 55.5767 139.35 55.4054 139.218 55.1986L138.744 57.999H137.841L138.972 51.3347H139.875L139.767 51.9964C139.95 51.7778 140.19 51.6064 140.481 51.4647ZM142.179 53.2253C142.179 52.859 142.076 52.5754 141.864 52.3686C141.653 52.1618 141.39 52.0614 141.076 52.0614C140.847 52.0614 140.624 52.1205 140.395 52.2386C140.173 52.3568 139.978 52.534 139.813 52.7644C139.647 52.9948 139.538 53.2666 139.487 53.5738C139.464 53.6802 139.452 53.7924 139.452 53.9106C139.452 54.2769 139.555 54.5664 139.767 54.7791C139.978 54.9918 140.235 55.0981 140.55 55.0981C140.784 55.0981 141.013 55.0391 141.236 54.915C141.458 54.7909 141.653 54.6137 141.818 54.3774C141.984 54.141 142.093 53.8692 142.144 53.5561C142.167 53.4557 142.179 53.3434 142.179 53.2253Z" fill="black"/>
<path d="M148.299 51.3242L147.527 55.838H146.624L146.71 55.3063C146.533 55.4895 146.327 55.6372 146.081 55.7435C145.835 55.8498 145.584 55.903 145.321 55.903C144.864 55.903 144.492 55.773 144.218 55.519C143.944 55.2649 143.807 54.8986 143.807 54.4319C143.807 54.3078 143.818 54.1542 143.847 53.9829L144.298 51.3242H145.195L144.767 53.8411C144.744 53.9947 144.732 54.101 144.732 54.166C144.732 54.4673 144.812 54.6978 144.973 54.8573C145.133 55.0168 145.355 55.0936 145.641 55.0936C145.973 55.0936 146.258 54.9932 146.487 54.7864C146.721 54.5796 146.876 54.2842 146.944 53.9002L147.379 51.3242H148.299Z" fill="black"/>
<path d="M149.505 55.7539C149.259 55.6476 149.059 55.4999 148.916 55.3049C148.774 55.11 148.699 54.8854 148.699 54.6373C148.699 54.596 148.705 54.531 148.716 54.4601H149.596C149.574 54.6668 149.636 54.8382 149.779 54.9741C149.922 55.11 150.122 55.1808 150.379 55.1808C150.631 55.1808 150.842 55.1336 151.008 55.0391C151.174 54.9445 151.254 54.8086 151.254 54.6314C151.254 54.4778 151.185 54.3537 151.054 54.2651C150.917 54.1706 150.705 54.0701 150.408 53.952C150.128 53.8397 149.899 53.7275 149.728 53.6329C149.551 53.5325 149.402 53.3966 149.276 53.2253C149.151 53.0539 149.088 52.8412 149.088 52.5813C149.088 52.3213 149.162 52.0909 149.305 51.89C149.448 51.6892 149.654 51.5355 149.917 51.4233C150.179 51.311 150.477 51.252 150.814 51.252C151.122 51.252 151.391 51.3051 151.637 51.4115C151.877 51.5178 152.065 51.6714 152.203 51.8605C152.34 52.0555 152.403 52.28 152.403 52.5281C152.403 52.6049 152.403 52.664 152.397 52.6994H151.54C151.562 52.4868 151.5 52.3154 151.362 52.1854C151.22 52.0555 151.025 51.9905 150.762 51.9905C150.534 51.9905 150.351 52.0377 150.214 52.1382C150.071 52.2386 150.002 52.3686 150.002 52.5399C150.002 52.7113 150.071 52.8471 150.214 52.9476C150.357 53.048 150.574 53.1603 150.871 53.2784C151.14 53.3907 151.362 53.4911 151.528 53.5916C151.7 53.692 151.843 53.822 151.963 53.9874C152.083 54.1528 152.145 54.3537 152.145 54.6019C152.145 54.8677 152.065 55.1041 151.911 55.3049C151.757 55.5058 151.54 55.6594 151.265 55.7658C150.991 55.8721 150.677 55.9253 150.328 55.9253C150.031 55.9135 149.751 55.8603 149.505 55.7539Z" fill="black"/>
<path d="M157.055 51.6305C157.318 51.8846 157.449 52.245 157.449 52.7176C157.449 52.8417 157.438 52.9953 157.409 53.1785L156.952 55.843H156.055L156.489 53.3203C156.512 53.1667 156.523 53.0603 156.523 52.9953C156.523 52.694 156.443 52.4636 156.283 52.3041C156.123 52.1445 155.9 52.0677 155.615 52.0677C155.272 52.0677 154.98 52.1741 154.746 52.3927C154.512 52.6113 154.363 52.9185 154.3 53.3203V53.3025L153.866 55.843H152.963L154.003 49.7754H154.906L154.552 51.8491C154.735 51.6601 154.957 51.5124 155.209 51.406C155.46 51.2997 155.729 51.2524 156.009 51.2524C156.438 51.2524 156.786 51.3765 157.055 51.6305Z" fill="black"/>
<path d="M161.735 51.3242L162.375 54.7687L164.238 51.3242H165.175L161.369 57.965H160.432L161.695 55.7671L160.729 51.3242H161.735Z" fill="black"/>
<path d="M166.027 55.6771C165.747 55.5176 165.53 55.2931 165.376 55.0036C165.222 54.7141 165.142 54.3833 165.142 54.0111C165.142 53.503 165.256 53.0362 165.484 52.6167C165.713 52.1973 166.033 51.8605 166.439 51.6183C166.845 51.3701 167.296 51.252 167.793 51.252C168.165 51.252 168.491 51.3347 168.776 51.4942C169.062 51.6537 169.285 51.8782 169.445 52.1677C169.605 52.4572 169.685 52.7881 169.685 53.1662C169.685 53.6743 169.565 54.141 169.331 54.5605C169.096 54.98 168.771 55.3108 168.365 55.559C167.959 55.8071 167.508 55.9253 167.01 55.9253C166.633 55.9135 166.307 55.8367 166.027 55.6771ZM167.942 54.8618C168.193 54.6846 168.388 54.4483 168.531 54.1588C168.674 53.8693 168.742 53.5561 168.742 53.2194C168.742 52.8412 168.639 52.5517 168.433 52.345C168.228 52.1382 167.971 52.0377 167.656 52.0377C167.348 52.0377 167.079 52.1264 166.833 52.3036C166.588 52.4808 166.405 52.7172 166.267 53.0185C166.13 53.3139 166.067 53.6329 166.067 53.9756C166.067 54.3419 166.165 54.6255 166.359 54.8264C166.553 55.0272 166.799 55.1277 167.108 55.1277C167.416 55.1277 167.691 55.0391 167.942 54.8618Z" fill="black"/>
<path d="M174.874 51.3242L174.102 55.838H173.199L173.285 55.3063C173.108 55.4895 172.902 55.6372 172.656 55.7435C172.411 55.8498 172.159 55.903 171.896 55.903C171.439 55.903 171.068 55.773 170.793 55.519C170.519 55.2649 170.382 54.8986 170.382 54.4319C170.382 54.3078 170.393 54.1542 170.422 53.9829L170.873 51.3242H171.771L171.342 53.8411C171.319 53.9947 171.308 54.101 171.308 54.166C171.308 54.4673 171.388 54.6978 171.548 54.8573C171.708 55.0168 171.931 55.0936 172.216 55.0936C172.548 55.0936 172.834 54.9932 173.062 54.7864C173.297 54.5796 173.451 54.2842 173.519 53.9002L173.954 51.3242H174.874Z" fill="black"/>
<path d="M177.469 51.4824C177.714 51.3288 177.989 51.252 178.292 51.252L178.126 52.2209H177.897C177.549 52.2209 177.269 52.3095 177.057 52.4927C176.846 52.6758 176.697 52.983 176.611 53.4261L176.2 55.8426H175.297L176.068 51.3288H176.971L176.834 52.1264C177.011 51.8487 177.223 51.6301 177.469 51.4824Z" fill="black"/>
<path d="M181.287 52.3509C181.527 51.9964 181.824 51.7246 182.184 51.5356C182.538 51.3465 182.927 51.2461 183.344 51.2461C183.87 51.2461 184.287 51.3761 184.59 51.636C184.893 51.896 185.064 52.2682 185.104 52.7467H184.127C184.087 52.5222 183.984 52.3509 183.836 52.2209C183.681 52.0969 183.476 52.0319 183.207 52.0319C182.835 52.0319 182.521 52.1678 182.258 52.4395C181.995 52.7113 181.818 53.0894 181.732 53.5739C181.704 53.7511 181.692 53.8929 181.692 53.9993C181.692 54.3597 181.778 54.6373 181.955 54.8323C182.127 55.0273 182.373 55.1218 182.687 55.1218C183.213 55.1218 183.596 54.8855 183.847 54.4069H184.824C184.619 54.8678 184.316 55.2282 183.927 55.4999C183.533 55.7717 183.076 55.9076 182.561 55.9076C182.012 55.9076 181.578 55.7422 181.252 55.4172C180.932 55.0923 180.767 54.6492 180.767 54.0938C180.767 53.9225 180.784 53.7511 180.812 53.568C180.881 53.1131 181.041 52.7054 181.287 52.3509Z" fill="black"/>
<path d="M186.407 55.6771C186.127 55.5176 185.91 55.2931 185.756 55.0036C185.601 54.7141 185.521 54.3833 185.521 54.0111C185.521 53.503 185.636 53.0362 185.864 52.6167C186.093 52.1973 186.413 51.8605 186.819 51.6183C187.225 51.3701 187.676 51.252 188.173 51.252C188.545 51.252 188.871 51.3347 189.156 51.4942C189.442 51.6537 189.665 51.8782 189.825 52.1677C189.985 52.4572 190.065 52.7881 190.065 53.1662C190.065 53.6743 189.945 54.141 189.711 54.5605C189.476 54.98 189.151 55.3108 188.745 55.559C188.339 55.8071 187.887 55.9253 187.39 55.9253C187.013 55.9135 186.687 55.8367 186.407 55.6771ZM188.322 54.8618C188.573 54.6846 188.768 54.4483 188.911 54.1588C189.053 53.8693 189.122 53.5561 189.122 53.2194C189.122 52.8412 189.019 52.5517 188.813 52.345C188.608 52.1382 188.35 52.0377 188.036 52.0377C187.727 52.0377 187.459 52.1264 187.213 52.3036C186.967 52.4808 186.784 52.7172 186.647 53.0185C186.51 53.3139 186.447 53.6329 186.447 53.9756C186.447 54.3419 186.544 54.6255 186.739 54.8264C186.933 55.0272 187.179 55.1277 187.487 55.1277C187.796 55.1277 188.07 55.0391 188.322 54.8618Z" fill="black"/>
<path d="M191.099 52.3572C191.339 52.0086 191.636 51.7368 191.985 51.5419C192.334 51.3469 192.699 51.2524 193.088 51.2524C193.374 51.2524 193.642 51.3174 193.9 51.4473C194.151 51.5773 194.345 51.7487 194.477 51.9613L194.848 49.7812H195.763L194.723 55.8489H193.808L193.928 55.1694C193.74 55.394 193.5 55.5771 193.219 55.713C192.934 55.8548 192.625 55.9198 192.288 55.9198C191.956 55.9198 191.659 55.843 191.402 55.6894C191.145 55.5358 190.939 55.3172 190.796 55.0395C190.653 54.7559 190.579 54.4369 190.579 54.0705C190.579 53.9051 190.596 53.7397 190.625 53.5684C190.699 53.1075 190.859 52.7058 191.099 52.3572ZM194.225 53.2434C194.225 52.8771 194.122 52.5876 193.911 52.3808C193.7 52.1681 193.442 52.0677 193.128 52.0677C192.894 52.0677 192.671 52.1268 192.448 52.2449C192.225 52.3631 192.031 52.5344 191.871 52.7589C191.705 52.9835 191.596 53.2552 191.545 53.5684C191.522 53.6747 191.511 53.787 191.511 53.9051C191.511 54.2773 191.614 54.5727 191.825 54.7854C192.036 54.9981 192.294 55.1104 192.608 55.1104C192.842 55.1104 193.065 55.0513 193.288 54.9272C193.511 54.8091 193.705 54.6318 193.865 54.4014C194.031 54.171 194.14 53.8992 194.191 53.5861C194.214 53.4738 194.225 53.3616 194.225 53.2434Z" fill="black"/>
<path d="M199.878 51.7246C200.203 52.0437 200.363 52.4691 200.363 53.0008C200.363 53.1249 200.352 53.2785 200.323 53.4498C200.301 53.568 200.266 53.7157 200.215 53.8929H196.877C196.872 53.9284 196.872 53.9875 196.872 54.0643C196.872 54.3892 196.969 54.6432 197.163 54.8323C197.357 55.0214 197.609 55.1218 197.923 55.1218C198.415 55.1218 198.792 54.9091 199.055 54.4896H200.032C199.832 54.9032 199.535 55.2459 199.146 55.5117C198.758 55.7776 198.306 55.9076 197.792 55.9076C197.426 55.9076 197.106 55.8367 196.832 55.689C196.557 55.5413 196.34 55.3286 196.192 55.0509C196.037 54.7732 195.963 54.4483 195.963 54.082C195.963 53.9225 195.98 53.757 196.009 53.5739C196.089 53.1071 196.249 52.6995 196.494 52.3509C196.74 51.9964 197.043 51.7246 197.403 51.5356C197.763 51.3465 198.163 51.2461 198.586 51.2461C199.118 51.252 199.552 51.4115 199.878 51.7246ZM199.438 53.0126C199.438 52.7113 199.34 52.475 199.146 52.2977C198.952 52.1205 198.7 52.0378 198.398 52.0378C198.077 52.0378 197.786 52.1441 197.523 52.3568C197.266 52.5695 197.089 52.859 196.992 53.2253H199.421C199.432 53.1249 199.438 53.054 199.438 53.0126Z" fill="black"/>
<path d="M201.981 54.7207L200.643 56.9835H200.055L200.998 54.7207H201.981Z" fill="black"/>
<path d="M211.599 51.3242L209.473 55.838H208.524L208.221 52.4999L206.764 55.838H205.815L205.221 51.3242H206.141L206.444 54.9577L207.981 51.3242H208.924L209.204 54.94L210.719 51.3242H211.599Z" fill="black"/>
<path d="M215.469 51.7246C215.794 52.0437 215.954 52.4691 215.954 53.0008C215.954 53.1249 215.943 53.2785 215.914 53.4498C215.891 53.568 215.857 53.7157 215.806 53.8929H212.468C212.462 53.9284 212.462 53.9875 212.462 54.0643C212.462 54.3892 212.56 54.6432 212.754 54.8323C212.948 55.0214 213.2 55.1218 213.514 55.1218C214.005 55.1218 214.383 54.9091 214.646 54.4896H215.623C215.423 54.9032 215.126 55.2459 214.737 55.5117C214.348 55.7776 213.897 55.9076 213.383 55.9076C213.017 55.9076 212.697 55.8367 212.422 55.689C212.148 55.5413 211.931 55.3286 211.782 55.0509C211.628 54.7732 211.554 54.4483 211.554 54.082C211.554 53.9225 211.571 53.757 211.599 53.5739C211.679 53.1071 211.839 52.6995 212.085 52.3509C212.331 51.9964 212.634 51.7246 212.994 51.5356C213.354 51.3465 213.754 51.2461 214.177 51.2461C214.708 51.252 215.143 51.4115 215.469 51.7246ZM215.028 53.0126C215.028 52.7113 214.931 52.475 214.737 52.2977C214.543 52.1205 214.291 52.0378 213.988 52.0378C213.668 52.0378 213.377 52.1441 213.114 52.3568C212.857 52.5695 212.68 52.859 212.582 53.2253H215.011C215.023 53.1249 215.028 53.054 215.028 53.0126Z" fill="black"/>
<path d="M219.337 52.3572C219.577 52.0086 219.875 51.7368 220.223 51.5419C220.572 51.3469 220.938 51.2524 221.326 51.2524C221.612 51.2524 221.881 51.3174 222.138 51.4473C222.389 51.5773 222.584 51.7487 222.715 51.9613L223.087 49.7812H224.001L222.961 55.8489H222.046L222.166 55.1694C221.978 55.394 221.738 55.5771 221.458 55.713C221.172 55.8548 220.863 55.9198 220.526 55.9198C220.195 55.9198 219.898 55.843 219.64 55.6894C219.383 55.5358 219.177 55.3172 219.035 55.0395C218.892 54.7559 218.817 54.4369 218.817 54.0705C218.817 53.9051 218.835 53.7397 218.863 53.5684C218.937 53.1075 219.097 52.7058 219.337 52.3572ZM222.464 53.2434C222.464 52.8771 222.361 52.5876 222.149 52.3808C221.938 52.1681 221.681 52.0677 221.366 52.0677C221.132 52.0677 220.909 52.1268 220.686 52.2449C220.463 52.3631 220.269 52.5344 220.109 52.7589C219.943 52.9835 219.835 53.2552 219.783 53.5684C219.76 53.6747 219.749 53.787 219.749 53.9051C219.749 54.2773 219.852 54.5727 220.063 54.7854C220.275 54.9981 220.532 55.1104 220.846 55.1104C221.081 55.1104 221.303 55.0513 221.526 54.9272C221.749 54.8091 221.944 54.6318 222.104 54.4014C222.269 54.171 222.378 53.8992 222.429 53.5861C222.458 53.4738 222.464 53.3616 222.464 53.2434Z" fill="black"/>
<path d="M225.081 55.6771C224.801 55.5176 224.584 55.2931 224.43 55.0036C224.275 54.7141 224.195 54.3833 224.195 54.0111C224.195 53.503 224.31 53.0362 224.538 52.6167C224.767 52.1973 225.087 51.8605 225.493 51.6183C225.898 51.3701 226.35 51.252 226.847 51.252C227.219 51.252 227.544 51.3347 227.83 51.4942C228.116 51.6537 228.339 51.8782 228.499 52.1677C228.659 52.4572 228.739 52.7881 228.739 53.1662C228.739 53.6743 228.619 54.141 228.384 54.5605C228.15 54.98 227.824 55.3108 227.419 55.559C227.013 55.8071 226.561 55.9253 226.064 55.9253C225.687 55.9135 225.361 55.8367 225.081 55.6771ZM226.996 54.8618C227.247 54.6846 227.441 54.4483 227.584 54.1588C227.727 53.8693 227.796 53.5561 227.796 53.2194C227.796 52.8412 227.693 52.5517 227.487 52.345C227.281 52.1382 227.024 52.0377 226.71 52.0377C226.401 52.0377 226.133 52.1264 225.887 52.3036C225.641 52.4808 225.458 52.7172 225.321 53.0185C225.184 53.3139 225.121 53.6329 225.121 53.9756C225.121 54.3419 225.218 54.6255 225.413 54.8264C225.607 55.0272 225.853 55.1277 226.161 55.1277C226.47 55.1277 226.744 55.0391 226.996 54.8618Z" fill="black"/>
<path d="M232.854 54.585C232.842 54.6618 232.836 54.7091 232.836 54.7327C232.836 54.845 232.871 54.9277 232.939 54.9808C233.008 55.034 233.122 55.0576 233.282 55.0576H233.837L233.699 55.8375H232.985C232.636 55.8375 232.368 55.7666 232.185 55.6189C232.002 55.4712 231.905 55.2408 231.905 54.9277C231.905 54.8095 231.916 54.6913 231.939 54.585L232.368 52.0859H231.854L231.979 51.3237H232.505L232.694 50.2012H233.608L233.419 51.3237H234.471L234.345 52.0859H233.282L232.854 54.585Z" fill="black"/>
<path d="M238.631 51.6305C238.894 51.8846 239.025 52.245 239.025 52.7176C239.025 52.8417 239.014 52.9953 238.985 53.1785L238.528 55.843H237.631L238.065 53.3203C238.088 53.1667 238.1 53.0603 238.1 52.9953C238.1 52.694 238.02 52.4636 237.86 52.3041C237.699 52.1445 237.477 52.0677 237.191 52.0677C236.848 52.0677 236.556 52.1741 236.322 52.3927C236.088 52.6113 235.939 52.9185 235.876 53.3203V53.3025L235.442 55.843H234.539L235.579 49.7754H236.482L236.128 51.8491C236.311 51.6601 236.534 51.5124 236.785 51.406C237.037 51.2997 237.305 51.2524 237.585 51.2524C238.014 51.2524 238.368 51.3765 238.631 51.6305Z" fill="black"/>
<path d="M243.643 51.7246C243.969 52.0437 244.129 52.4691 244.129 53.0008C244.129 53.1249 244.118 53.2785 244.089 53.4498C244.066 53.568 244.032 53.7157 243.981 53.8929H240.643C240.637 53.9284 240.637 53.9875 240.637 54.0643C240.637 54.3892 240.734 54.6432 240.929 54.8323C241.123 55.0214 241.374 55.1218 241.689 55.1218C242.18 55.1218 242.558 54.9091 242.82 54.4896H243.798C243.598 54.9032 243.3 55.2459 242.912 55.5117C242.523 55.7776 242.072 55.9076 241.557 55.9076C241.192 55.9076 240.872 55.8367 240.597 55.689C240.323 55.5413 240.106 55.3286 239.957 55.0509C239.803 54.7732 239.729 54.4483 239.729 54.082C239.729 53.9225 239.746 53.757 239.774 53.5739C239.854 53.1071 240.014 52.6995 240.26 52.3509C240.506 51.9964 240.809 51.7246 241.169 51.5356C241.529 51.3465 241.929 51.2461 242.352 51.2461C242.883 51.252 243.318 51.4115 243.643 51.7246ZM243.203 53.0126C243.203 52.7113 243.106 52.475 242.912 52.2977C242.718 52.1205 242.466 52.0378 242.163 52.0378C241.843 52.0378 241.552 52.1441 241.289 52.3568C241.032 52.5695 240.854 52.859 240.757 53.2253H243.186C243.198 53.1249 243.203 53.054 243.203 53.0126Z" fill="black"/>
<path d="M249.124 51.4824C249.37 51.3288 249.644 51.252 249.947 51.252L249.781 52.2209H249.552C249.204 52.2209 248.924 52.3095 248.712 52.4927C248.501 52.6758 248.352 52.983 248.267 53.4261L247.855 55.8426H246.952L247.724 51.3288H248.627L248.49 52.1264C248.667 51.8487 248.878 51.6301 249.124 51.4824Z" fill="black"/>
<path d="M253.959 51.7246C254.285 52.0437 254.445 52.4691 254.445 53.0008C254.445 53.1249 254.433 53.2785 254.405 53.4498C254.382 53.568 254.347 53.7157 254.296 53.8929H250.958C250.953 53.9284 250.953 53.9875 250.953 54.0643C250.953 54.3892 251.05 54.6432 251.244 54.8323C251.438 55.0214 251.69 55.1218 252.004 55.1218C252.496 55.1218 252.873 54.9091 253.136 54.4896H254.113C253.913 54.9032 253.616 55.2459 253.227 55.5117C252.839 55.7776 252.387 55.9076 251.873 55.9076C251.507 55.9076 251.187 55.8367 250.913 55.689C250.638 55.5413 250.421 55.3286 250.273 55.0509C250.118 54.7732 250.044 54.4483 250.044 54.082C250.044 53.9225 250.061 53.757 250.09 53.5739C250.17 53.1071 250.33 52.6995 250.575 52.3509C250.821 51.9964 251.124 51.7246 251.484 51.5356C251.844 51.3465 252.244 51.2461 252.667 51.2461C253.199 51.252 253.633 51.4115 253.959 51.7246ZM253.519 53.0126C253.519 52.7113 253.422 52.475 253.227 52.2977C253.033 52.1205 252.781 52.0378 252.479 52.0378C252.159 52.0378 251.867 52.1441 251.604 52.3568C251.347 52.5695 251.17 52.859 251.073 53.2253H253.502C253.513 53.1249 253.519 53.054 253.519 53.0126Z" fill="black"/>
<path d="M255.668 55.7539C255.422 55.6476 255.222 55.4999 255.079 55.3049C254.937 55.11 254.862 54.8854 254.862 54.6373C254.862 54.596 254.868 54.531 254.879 54.4601H255.76C255.737 54.6668 255.8 54.8382 255.942 54.9741C256.085 55.11 256.285 55.1808 256.543 55.1808C256.794 55.1808 257.005 55.1336 257.171 55.0391C257.337 54.9445 257.417 54.8086 257.417 54.6314C257.417 54.4778 257.348 54.3537 257.217 54.2651C257.08 54.1706 256.868 54.0701 256.571 53.952C256.291 53.8397 256.063 53.7275 255.891 53.6329C255.714 53.5325 255.565 53.3966 255.44 53.2253C255.314 53.0539 255.251 52.8412 255.251 52.5813C255.251 52.3213 255.325 52.0909 255.468 51.89C255.611 51.6892 255.817 51.5355 256.08 51.4233C256.343 51.311 256.64 51.252 256.977 51.252C257.286 51.252 257.554 51.3051 257.8 51.4115C258.04 51.5178 258.228 51.6714 258.366 51.8605C258.503 52.0555 258.566 52.28 258.566 52.5281C258.566 52.6049 258.566 52.664 258.56 52.6994H257.703C257.726 52.4868 257.663 52.3154 257.526 52.1854C257.383 52.0555 257.188 51.9905 256.925 51.9905C256.697 51.9905 256.514 52.0377 256.377 52.1382C256.234 52.2386 256.165 52.3686 256.165 52.5399C256.165 52.7113 256.234 52.8471 256.377 52.9476C256.52 53.048 256.737 53.1603 257.034 53.2784C257.303 53.3907 257.526 53.4911 257.691 53.5916C257.863 53.692 258.006 53.822 258.126 53.9874C258.246 54.1528 258.309 54.3537 258.309 54.6019C258.309 54.8677 258.229 55.1041 258.074 55.3049C257.92 55.5058 257.703 55.6594 257.428 55.7658C257.154 55.8721 256.84 55.9253 256.491 55.9253C256.194 55.9135 255.914 55.8603 255.668 55.7539Z" fill="black"/>
<path d="M260.383 54.585C260.372 54.6618 260.366 54.7091 260.366 54.7327C260.366 54.845 260.4 54.9277 260.469 54.9808C260.537 55.034 260.652 55.0576 260.812 55.0576H261.366L261.229 55.8375H260.514C260.166 55.8375 259.897 55.7666 259.714 55.6189C259.531 55.4712 259.434 55.2408 259.434 54.9277C259.434 54.8095 259.446 54.6913 259.469 54.585L259.897 52.0859H259.383L259.509 51.3237H260.034L260.223 50.2012H261.137L260.949 51.3237H262L261.875 52.0859H260.812L260.383 54.585Z" fill="black"/>
<defs>
<linearGradient id="paint0_linear_729_6826" x1="4.73361e-07" y1="49.9572" x2="80.0389" y2="5.32365" gradientUnits="userSpaceOnUse">
<stop stop-color="#085DF4"/>
<stop offset="1" stop-color="#780FFF"/>
</linearGradient>
</defs>
</svg>
